<?xml version="1.0" standalone="no"?>
<!DOCTYPE svg PUBLIC "-//W3C//DTD SVG 20010904//EN"
 "http://www.w3.org/TR/2001/REC-SVG-20010904/DTD/svg10.dtd">
<svg version="1.0" xmlns="http://www.w3.org/2000/svg"
 width="640.000000pt" height="640.000000pt" viewBox="0 0 640.000000 640.000000"
 preserveAspectRatio="xMidYMid meet">

<g transform="translate(0.000000,640.000000) scale(0.100000,-0.100000)"
fill="#000000" stroke="none">
<path d="M2680 4179 c-548 -5 -677 -9 -735 -21 -189 -42 -300 -104 -441 -243
-122 -121 -184 -217 -184 -287 0 -51 13 -67 75 -95 36 -16 77 -18 425 -18 412
0 441 -3 448 -50 6 -46 -121 -169 -279 -271 -60 -38 -77 -44 -179 -59 -364
-53 -644 -214 -720 -413 -23 -62 -27 -169 -7 -197 21 -28 34 -12 40 51 15 148
121 253 359 356 222 96 448 129 1003 147 203 7 284 14 325 26 129 39 189 103
197 210 5 55 3 64 -22 93 -36 43 -71 60 -137 67 -89 10 -154 -38 -165 -123 -5
-36 -2 -45 25 -72 17 -16 41 -30 54 -30 30 0 68 34 68 62 0 18 -4 19 -35 14
-29 -6 -35 -4 -35 11 0 27 12 41 40 47 29 7 42 0 59 -31 28 -53 -2 -110 -69
-133 -32 -10 -580 -52 -589 -44 -10 9 226 210 293 249 62 36 184 74 299 92
140 23 523 23 700 -1 369 -48 633 -127 1050 -315 386 -173 510 -189 623 -77
110 111 97 281 -28 363 -38 25 -50 28 -133 28 -82 0 -96 -3 -132 -27 -73 -48
-92 -137 -40 -186 25 -24 91 -44 70 -21 -21 22 -15 64 13 93 22 21 36 26 78
26 59 -1 82 -14 97 -58 17 -50 -13 -99 -81 -135 -95 -50 -153 -36 -480 115
-414 192 -642 257 -1049 298 -63 6 -454 10 -1007 10 -669 0 -910 3 -929 12
-59 27 -40 83 58 175 88 82 193 145 307 185 l95 33 1617 0 1618 0 27 -28 28
-27 3 -570 c2 -314 1 -570 -3 -570 -4 0 -44 22 -89 49 -213 129 -347 183 -564
227 -202 41 -307 29 -300 -34 2 -20 15 -33 45 -50 l43 -23 -6 30 c-6 27 -3 31
21 37 119 30 442 -83 675 -236 115 -76 173 -122 268 -214 l73 -71 -3 745 c-3
801 -2 776 -56 833 -56 58 -35 57 -1091 55 -531 -1 -1265 -5 -1631 -9z"/>
<path d="M3636 2912 c-2 -4 -6 -28 -10 -53 -6 -42 -10 -47 -38 -53 -48 -10
-51 -8 -44 24 5 26 2 32 -20 40 -40 16 -44 13 -44 -35 0 -41 -2 -45 -25 -45
-18 0 -25 -5 -25 -19 0 -24 18 -36 48 -32 18 2 22 -2 22 -22 0 -19 -8 -28 -31
-36 -18 -6 -40 -11 -50 -11 -22 0 -93 -85 -86 -104 5 -14 52 -27 62 -18 3 3 5
18 5 33 0 50 9 59 59 59 25 0 62 5 81 10 50 15 177 30 194 24 30 -12 26 -34
-9 -51 -28 -13 -39 -14 -60 -5 -33 15 -74 15 -148 0 l-59 -12 6 -35 c3 -19 16
-45 28 -57 22 -21 26 -22 85 -11 55 11 66 17 87 48 24 36 25 36 89 33 87 -3
95 4 63 53 -30 44 -80 73 -130 73 -39 0 -45 5 -39 31 4 14 14 19 39 19 18 0
36 5 39 10 11 18 -6 50 -27 50 -15 0 -18 4 -13 18 20 47 17 59 -14 70 -17 6
-32 8 -35 4z m-42 -174 c-13 -43 -54 -53 -54 -14 0 23 12 32 48 35 9 1 11 -6
6 -21z m6 -162 c0 -14 -58 -31 -69 -20 -9 8 30 34 51 34 10 0 18 -6 18 -14z"/>
<path d="M2864 2828 l-9 -63 -42 -8 c-44 -8 -48 -14 -36 -55 5 -21 10 -23 39
-17 29 5 34 3 34 -14 0 -21 -11 -25 -130 -51 -84 -18 -90 -20 -90 -34 0 -8 7
-19 15 -26 11 -9 27 -8 77 9 91 29 157 43 138 28 -68 -53 -134 -98 -183 -126
-62 -35 -66 -51 -12 -51 49 0 86 17 117 53 l27 32 1 -48 c0 -71 13 -89 56 -81
27 5 40 2 57 -14 25 -22 61 -42 76 -42 7 0 11 31 11 83 0 45 4 98 10 117 12
43 0 58 -61 68 l-44 8 31 12 c23 10 52 11 113 4 45 -4 83 -6 85 -4 3 2 0 17
-6 33 -10 28 -13 29 -71 29 l-60 0 22 24 c23 24 21 46 -3 46 -6 0 -27 -16 -46
-35 -36 -37 -60 -45 -60 -20 0 9 16 25 35 36 51 30 43 59 -17 59 -18 0 -19 5
-16 53 3 49 2 52 -23 55 -24 3 -26 0 -35 -60z m76 -298 c13 -25 9 -130 -5
-131 -5 0 -11 9 -13 21 -3 15 -11 20 -35 20 l-32 1 33 27 c39 33 41 49 6 58
-19 5 -22 9 -12 15 22 15 47 10 58 -11z"/>
<path d="M2062 2823 c-11 -16 -29 -48 -42 -72 -33 -65 -13 -73 50 -20 70 59
79 77 50 101 -29 24 -35 23 -58 -9z"/>
<path d="M4317 2843 c-3 -4 -8 -44 -12 -88 -4 -44 -12 -89 -18 -99 -9 -19 -10
-19 -23 -1 -11 15 -16 16 -29 5 -8 -7 -15 -23 -15 -36 0 -14 -10 -30 -25 -40
-14 -9 -25 -24 -26 -33 0 -11 -2 -12 -6 -3 -3 7 7 28 22 48 31 41 30 69 -4 68
-23 -1 -24 0 -18 73 5 72 5 73 -18 73 -27 0 -33 -20 -38 -120 -2 -58 0 -56
-75 -76 -9 -3 -7 -14 9 -45 15 -31 24 -38 32 -30 35 35 37 -37 2 -83 -32 -42
-31 -50 2 -65 25 -12 29 -10 49 14 12 15 32 50 45 76 26 57 41 58 50 5 3 -20
20 -53 36 -74 l30 -37 136 0 c89 0 140 4 147 11 13 13 -4 152 -22 187 -14 27
-28 20 -28 -15 0 -51 -19 -107 -40 -118 -10 -5 -48 -10 -85 -10 -69 0 -118 17
-129 45 -12 32 -6 102 9 115 13 11 15 5 15 -43 0 -71 22 -87 44 -32 2 6 9 5
17 -2 20 -20 47 -15 60 9 7 13 20 54 30 93 18 66 18 71 1 83 -9 7 -30 11 -45
9 l-29 -4 4 71 c3 70 3 71 -24 74 -14 2 -28 0 -31 -5z m63 -211 c0 -39 -22
-83 -33 -66 -8 13 13 104 24 104 5 0 9 -17 9 -38z"/>
<path d="M2247 2817 c-65 -20 -68 -22 -62 -47 10 -38 17 -41 75 -30 84 16 127
53 100 85 -16 19 -28 18 -113 -8z"/>
<path d="M2325 2719 c-201 -42 -208 -45 -185 -89 10 -18 13 -18 51 -5 56 20
86 19 93 -2 3 -10 8 -55 12 -100 8 -96 2 -103 -71 -83 -66 18 -76 8 -26 -28
34 -25 127 -62 155 -62 3 0 3 58 -1 128 -7 157 0 177 57 168 46 -7 57 11 35
55 -17 32 -39 35 -120 18z"/>
<path d="M2039 2658 c-24 -35 -60 -83 -81 -107 -43 -49 -46 -61 -19 -61 25 0
70 37 84 69 11 23 12 16 15 -59 2 -48 8 -87 14 -91 28 -17 35 4 42 124 4 67
12 126 17 132 20 20 4 55 -26 55 -3 0 -23 -28 -46 -62z"/>
<path d="M4853 2709 c-29 -10 -53 -48 -53 -81 0 -16 -4 -28 -10 -28 -19 0 -32
-41 -25 -82 8 -45 52 -101 98 -125 19 -9 56 -15 96 -15 60 0 74 4 175 58 96
50 119 58 166 58 41 1 66 -6 95 -23 l40 -23 -25 27 c-69 75 -164 85 -278 30
-101 -48 -143 -58 -191 -45 -52 14 -81 51 -81 104 0 52 21 83 64 94 46 13 83
4 106 -26 24 -30 25 -59 4 -83 -20 -22 -54 -9 -54 21 0 28 -29 14 -37 -18 -13
-55 76 -84 121 -39 31 31 44 129 21 163 -19 29 -53 39 -103 28 -20 -4 -41 -6
-47 -5 -5 2 -21 7 -35 11 -14 4 -35 4 -47 -1z"/>
<path d="M1450 2690 c-31 -31 -20 -168 16 -195 25 -19 89 -19 108 1 19 18 21
55 4 72 -18 18 -26 15 -30 -10 -2 -15 -11 -24 -27 -26 -28 -4 -41 12 -41 51 0
75 112 106 171 48 51 -52 32 -148 -36 -177 -58 -24 -103 -17 -205 31 -78 37
-105 45 -153 45 -65 0 -117 -22 -157 -65 l-25 -27 45 23 c60 32 133 30 197 -3
167 -89 176 -92 238 -96 104 -7 172 27 206 102 24 53 24 87 -1 119 -11 14 -20
36 -20 50 0 13 -9 36 -21 51 -16 21 -29 26 -63 26 -23 0 -47 -5 -52 -10 -8 -8
-19 -8 -38 0 -44 16 -94 12 -116 -10z"/>
<path d="M3507 2475 c-27 -7 -51 -16 -54 -19 -13 -12 9 -74 35 -98 27 -25 28
-26 112 -14 72 9 85 14 88 31 2 11 14 31 25 43 l22 24 -28 24 c-24 20 -38 24
-90 23 -34 0 -84 -7 -110 -14z m118 -50 c0 -17 -7 -20 -49 -20 -59 0 -73 20
-24 34 48 14 73 9 73 -14z"/>
</g>
</svg>
