<?xml version="1.0" standalone="no"?>
<!DOCTYPE svg PUBLIC "-//W3C//DTD SVG 20010904//EN"
 "http://www.w3.org/TR/2001/REC-SVG-20010904/DTD/svg10.dtd">
<svg version="1.0" xmlns="http://www.w3.org/2000/svg"
 width="341.000000pt" height="88.000000pt" viewBox="0 0 341.000000 88.000000"
 preserveAspectRatio="xMidYMid meet">

<g transform="translate(0.000000,88.000000) scale(0.100000,-0.100000)"
fill="#000000" stroke="none">
<path d="M2124 781 c-8 -63 -19 -78 -66 -86 l-38 -7 0 40 c0 41 -11 52 -51 52
-15 0 -19 -7 -19 -37 0 -45 -7 -58 -38 -68 -38 -11 -26 -49 18 -55 63 -9 50
-64 -19 -76 -45 -8 -92 -43 -121 -89 -26 -42 -15 -65 31 -65 27 0 29 3 29 39
0 51 20 71 72 71 23 0 90 9 149 21 133 25 193 23 197 -7 4 -28 -68 -60 -98
-44 -25 13 -123 13 -194 -1 -57 -12 -57 -12 -50 -43 3 -17 15 -46 26 -63 18
-30 24 -33 66 -33 59 1 120 22 138 49 33 46 44 51 117 51 88 0 104 8 87 41
-32 62 -88 100 -160 108 -40 5 -45 9 -45 31 0 17 6 26 20 28 58 9 65 13 65 37
0 18 -8 28 -26 35 -18 7 -24 15 -20 26 23 59 16 76 -36 89 -26 7 -27 5 -34
-44z m-47 -173 c-17 -42 -57 -52 -57 -16 0 30 17 48 47 48 22 0 22 -1 10 -32z
m13 -188 c0 -11 -60 -31 -71 -24 -13 8 -1 24 25 33 22 9 46 4 46 -9z"/>
<path d="M1211 740 c-6 -28 -11 -60 -11 -70 0 -13 -9 -22 -27 -26 -51 -10 -73
-23 -73 -43 0 -40 11 -51 51 -51 28 0 39 -4 39 -15 0 -21 -26 -32 -131 -55
-132 -29 -131 -29 -127 -53 4 -32 44 -33 148 -2 50 15 98 25 107 23 11 -2 -32
-37 -119 -96 -75 -50 -140 -97 -144 -103 -5 -8 12 -10 60 -7 62 4 69 7 110 47
l43 43 5 -60 c5 -75 18 -92 71 -92 28 0 55 -9 89 -31 67 -44 78 -36 78 54 0
40 5 100 11 132 10 55 9 60 -11 77 -11 9 -42 20 -68 24 l-47 7 30 14 c22 10
58 12 138 7 95 -5 107 -4 107 11 0 44 -18 55 -91 55 l-70 0 20 26 c22 29 27
49 12 58 -5 4 -34 -15 -65 -40 -48 -39 -57 -43 -63 -28 -5 12 4 26 32 49 43
37 43 65 0 65 -30 0 -38 15 -39 79 -1 42 -3 46 -28 49 -24 3 -27 -1 -37 -48z
m77 -362 c16 -21 24 -77 17 -124 -7 -49 -15 -55 -30 -21 -7 15 -21 24 -44 27
l-35 5 37 28 c44 33 47 54 10 68 -22 8 -24 12 -13 19 21 13 46 12 58 -2z"/>
<path d="M247 718 c-31 -42 -67 -113 -67 -133 0 -28 29 -15 89 41 65 60 74 84
39 108 -30 22 -33 21 -61 -16z"/>
<path d="M2952 733 c-5 -10 -12 -49 -16 -88 -7 -75 -23 -145 -33 -145 -3 0
-11 8 -18 17 -11 14 -16 15 -28 4 -9 -7 -18 -24 -22 -39 -5 -24 -57 -92 -70
-92 -3 0 8 24 25 53 38 67 37 76 -1 84 l-30 6 3 81 c3 77 2 81 -19 84 -18 3
-24 -4 -32 -35 -6 -21 -11 -58 -11 -83 0 -74 -8 -89 -51 -100 -21 -6 -40 -14
-43 -19 -3 -4 3 -23 13 -42 13 -24 26 -34 42 -34 36 0 36 -37 -1 -102 -34 -60
-31 -73 17 -87 25 -8 54 26 97 112 15 29 32 52 38 50 6 -2 16 -22 23 -45 7
-22 26 -61 44 -87 l32 -46 137 0 c75 0 154 3 175 6 36 6 37 8 37 48 0 59 -27
178 -44 194 -12 13 -15 8 -21 -34 -17 -126 -37 -145 -150 -145 -101 0 -146 21
-159 74 -11 42 2 108 22 115 8 3 12 -12 12 -50 0 -29 5 -60 10 -68 9 -13 13
-12 28 8 16 21 21 22 45 11 24 -11 30 -10 47 7 21 22 60 142 60 185 0 34 -30
54 -71 45 l-30 -6 7 64 c9 86 1 116 -31 116 -13 0 -28 -8 -33 -17z m54 -312
c-14 -13 -16 -13 -17 -1 -2 27 2 55 14 90 l12 35 3 -54 c2 -39 -1 -59 -12 -70z"/>
<path d="M460 707 c-71 -24 -82 -40 -52 -77 l19 -24 68 17 c75 19 118 49 113
82 -4 29 -67 30 -148 2z"/>
<path d="M500 580 c-130 -28 -165 -42 -168 -66 -5 -38 19 -47 86 -29 91 23 88
27 108 -132 4 -29 3 -64 0 -79 -7 -26 -9 -26 -59 -20 -29 3 -62 9 -75 12 -36
10 -18 -17 32 -49 38 -24 145 -67 167 -67 5 0 6 69 3 152 -7 188 -2 201 71
208 46 5 50 7 47 29 -7 64 -57 74 -212 41z"/>
<path d="M230 540 c-18 -28 -59 -85 -91 -126 -33 -42 -59 -81 -59 -85 0 -24
48 -5 85 35 l42 43 10 -89 c11 -95 14 -104 37 -95 9 4 16 25 20 59 3 29 11 96
17 148 18 147 17 155 -7 158 -16 2 -29 -9 -54 -48z"/>
<path d="M2034 310 c-71 -10 -124 -29 -124 -44 0 -26 23 -82 43 -103 17 -19
31 -23 78 -23 86 0 157 18 164 41 4 10 18 33 32 50 l26 31 -29 23 c-44 35 -84
41 -190 25z m70 -46 c9 -3 16 -15 16 -26 0 -17 -6 -19 -55 -16 -64 3 -75 18
-25 35 42 14 44 15 64 7z"/>
</g>
</svg>
